<svg width="40" height="40" viewBox="0 0 40 40" fill="none" xmlns="http://www.w3.org/2000/svg">
<circle cx="20" cy="20" r="20" fill="#FCFCFC"/>
<path d="M15.6364 28C15.4676 28 15.3057 27.9342 15.1864 27.8169C15.067 27.6997 15 27.5408 15 27.375V13.6249C15 13.5163 15.0289 13.4096 15.0837 13.3152C15.1385 13.2209 15.2174 13.1422 15.3126 13.087C15.4078 13.0317 15.516 13.0018 15.6265 13.0001C15.7371 12.9984 15.8462 13.025 15.9431 13.0774L28.6706 19.9524C28.7703 20.0064 28.8535 20.0857 28.9115 20.182C28.9694 20.2783 29 20.3881 29 20.4999C29 20.6118 28.9694 20.7216 28.9115 20.8179C28.8535 20.9142 28.7703 20.9935 28.6706 21.0475L15.9431 27.9225C15.8491 27.9733 15.7436 28 15.6364 28Z" fill="#F04C44"/>
</svg>
